<svg width="72" height="72" viewBox="0 0 72 72" xmlns="http://www.w3.org/2000/svg">
    <g id="#fafafaff">
        <path fill="#fafafa" opacity="1.00"
            d=" M 6.00 15.00 C 26.00 15.00 46.00 15.00 66.00 15.00 C 66.00 16.33 66.00 17.67 66.00 19.00 C 46.00 19.00 26.00 19.00 6.00 19.00 C 6.00 17.67 6.00 16.33 6.00 15.00 Z" />
        <path fill="#fafafa" opacity="1.00"
            d=" M 6.00 35.00 C 26.00 35.00 46.00 35.00 66.00 35.00 C 66.00 36.33 66.00 37.67 66.00 39.00 C 46.00 39.00 26.00 39.00 6.00 39.00 C 6.00 37.67 6.00 36.33 6.00 35.00 Z" />
        <path fill="#fafafa" opacity="1.00"
            d=" M 6.00 55.00 C 26.00 55.00 46.00 55.00 66.00 55.00 C 66.00 56.33 66.00 57.67 66.00 59.00 C 46.00 59.00 26.00 59.00 6.00 59.00 C 6.00 57.67 6.00 56.33 6.00 55.00 Z" />
    </g>
</svg>
