<svg width="72" height="72" viewBox="0 0 72 72" xmlns="http://www.w3.org/2000/svg">
    <g id="#fffbfcff">
        <path fill="#fffbfc" opacity="1.00"
            d=" M 9.29 16.18 C 26.80 15.86 44.33 16.06 61.85 16.08 C 64.80 15.91 64.80 21.09 61.84 20.92 C 44.62 21.01 27.38 21.01 10.15 20.92 C 7.63 21.02 7.11 17.12 9.29 16.18 Z" />
        <path fill="#fffbfc" opacity="1.00"
            d=" M 9.29 34.18 C 26.79 33.86 44.33 34.06 61.85 34.08 C 64.80 33.91 64.80 39.09 61.85 38.92 C 44.62 39.01 27.38 39.01 10.16 38.92 C 7.64 39.03 7.11 35.12 9.29 34.18 Z" />
        <path fill="#fffbfc" opacity="1.00"
            d=" M 9.29 51.18 C 26.80 50.86 44.33 51.06 61.85 51.08 C 64.79 50.91 64.80 56.09 61.85 55.92 C 44.62 56.01 27.38 56.01 10.16 55.92 C 7.63 56.03 7.11 52.12 9.29 51.18 Z" />
    </g>
</svg>
