<svg width="80" height="80" viewBox="0 0 80 80" version="1.1" xmlns="http://www.w3.org/2000/svg">
    <g id="#ea0000ff">
        <path fill="#ea0000" opacity="1.00"
            d=" M 32.12 7.25 C 35.82 3.53 42.22 2.98 46.49 6.03 C 46.62 6.13 46.86 6.34 46.99 6.44 C 52.49 11.13 57.33 16.53 62.75 21.31 C 63.54 22.17 65.06 23.61 63.82 24.77 C 61.45 25.89 58.39 24.37 56.23 26.10 C 52.41 29.30 49.07 33.02 45.38 36.36 C 43.09 38.55 39.29 39.28 36.72 37.12 C 32.26 33.50 28.65 28.88 23.96 25.52 C 21.51 24.89 18.84 25.65 16.48 24.50 C 16.96 21.49 19.60 19.64 21.56 17.56 C 24.99 14.03 28.60 10.69 32.12 7.25 M 35.03 9.17 C 30.70 13.35 26.29 17.46 22.13 21.81 C 24.09 22.33 26.30 22.59 27.80 24.11 C 31.71 27.55 35.15 31.53 39.23 34.76 C 42.45 35.96 44.42 32.32 46.54 30.59 C 50.18 27.44 53.09 22.90 58.07 21.84 C 54.06 17.51 49.66 13.58 45.47 9.43 C 42.63 6.80 37.98 6.59 35.03 9.17 Z" />
        <path fill="#ea0000" opacity="1.00"
            d=" M 3.99 39.00 C 4.15 33.72 8.55 30.22 12.07 26.91 C 13.98 25.78 15.44 28.39 13.88 29.67 C 11.54 32.64 7.43 34.77 7.49 39.06 C 6.99 43.33 10.51 46.21 13.27 48.83 C 14.97 49.70 14.72 52.29 12.83 52.84 L 11.61 51.81 C 11.55 51.77 11.44 51.67 11.39 51.62 C 7.66 48.42 3.55 44.37 3.99 39.00 Z" />
        <path fill="#ea0000" opacity="1.00"
            d=" M 65.89 26.96 C 66.40 26.94 67.43 26.92 67.94 26.90 C 71.41 30.23 75.81 33.67 76.00 38.91 C 76.52 44.32 72.33 48.34 68.65 51.62 C 68.59 51.67 68.48 51.76 68.42 51.80 L 67.08 52.73 C 63.32 50.81 67.71 48.05 69.27 46.36 C 73.24 43.25 73.74 36.61 69.71 33.35 C 68.25 31.45 64.52 29.79 65.89 26.96 Z" />
        <path fill="#ea0000" opacity="1.00"
            d=" M 37.45 42.29 C 40.31 40.51 43.71 42.18 45.84 44.31 C 49.11 47.34 52.18 50.59 55.53 53.53 C 57.74 55.78 61.17 54.06 63.77 55.21 C 65.05 56.33 63.59 57.88 62.85 58.83 C 58.16 63.45 53.58 68.20 48.83 72.76 C 44.49 77.03 36.74 76.86 32.51 72.52 C 27.61 67.79 22.78 62.98 17.77 58.36 C 17.03 57.66 16.44 56.59 16.67 55.55 C 18.94 53.76 22.34 55.85 24.57 53.87 C 29.17 50.37 32.65 45.53 37.45 42.29 M 34.91 48.87 C 30.96 52.15 28.01 57.20 22.58 58.13 C 26.72 62.15 30.80 66.22 34.98 70.19 C 37.83 73.09 42.76 73.57 45.88 70.81 C 50.29 66.83 54.34 62.46 58.56 58.27 C 50.91 56.79 47.41 48.65 41.00 45.04 C 38.24 44.53 36.80 47.44 34.91 48.87 Z" />
    </g>
</svg>
