<svg width="512" height="512" viewBox="0 0 512 512" version="1.1"
    xmlns="http://www.w3.org/2000/svg">
    <g id="#ffdd00ff">
        <path fill="#ffdd00" opacity="1.00"
            d=" M 243.51 66.65 C 270.73 64.93 298.28 69.44 323.67 79.38 C 344.14 87.72 363.03 99.80 379.37 114.68 C 389.49 123.23 397.84 133.64 405.77 144.19 C 423.45 168.76 435.07 197.61 439.36 227.58 C 441.60 238.93 440.91 250.51 441.02 262.00 C 441.34 275.48 439.22 288.92 435.94 301.96 C 430.15 325.79 419.77 348.55 405.29 368.36 C 399.26 377.15 391.74 384.73 384.58 392.58 C 356.61 419.50 320.46 438.37 281.85 443.72 C 271.99 445.52 261.96 444.91 252.00 445.01 C 235.72 445.54 219.50 442.55 203.91 438.08 C 158.89 424.72 119.86 393.22 96.39 352.66 C 69.26 306.64 62.97 249.03 79.20 198.17 C 86.84 173.41 99.86 150.38 116.77 130.77 C 131.91 112.63 151.04 98.11 171.76 86.89 C 193.98 75.40 218.53 68.33 243.51 66.65 M 245.40 96.23 C 224.98 97.64 204.74 102.90 186.62 112.53 C 173.70 118.54 162.13 127.04 151.49 136.44 C 145.51 141.16 140.86 147.22 135.94 152.97 C 111.29 182.34 98.54 220.84 98.79 259.02 C 99.86 287.01 107.31 314.99 121.95 338.99 C 134.68 360.82 152.94 379.32 174.41 392.63 C 191.95 404.06 212.19 410.79 232.69 414.49 C 239.42 415.37 246.21 415.73 252.98 416.20 C 289.17 416.92 325.29 404.15 353.40 381.44 C 359.54 376.61 364.71 370.72 370.33 365.33 C 375.82 360.02 380.18 353.71 384.49 347.45 C 401.57 323.23 411.08 293.96 412.69 264.45 C 413.91 255.09 412.45 245.72 411.72 236.39 C 408.18 206.39 396.01 177.50 377.04 153.99 C 371.78 147.92 366.80 141.51 360.45 136.51 C 329.75 108.23 287.14 92.68 245.40 96.23 Z" />
    </g>
    <g id="#f8c605ff">
        <path fill="#f8c605" opacity="1.00"
            d=" M 245.40 96.23 C 287.14 92.68 329.75 108.23 360.45 136.51 C 366.80 141.51 371.78 147.92 377.04 153.99 C 396.01 177.50 408.18 206.39 411.72 236.39 C 412.45 245.72 413.91 255.09 412.69 264.45 C 411.08 293.96 401.57 323.23 384.49 347.45 C 380.18 353.71 375.82 360.02 370.33 365.33 C 364.71 370.72 359.54 376.61 353.40 381.44 C 325.29 404.15 289.17 416.92 252.98 416.20 C 246.21 415.73 239.42 415.37 232.69 414.49 C 212.19 410.79 191.95 404.06 174.41 392.63 C 152.94 379.32 134.68 360.82 121.95 338.99 C 107.31 314.99 99.86 287.01 98.79 259.02 C 98.54 220.84 111.29 182.34 135.94 152.97 C 140.86 147.22 145.51 141.16 151.49 136.44 C 162.13 127.04 173.70 118.54 186.62 112.53 C 204.74 102.90 224.98 97.64 245.40 96.23 M 255.54 173.47 C 254.84 177.39 255.23 181.43 254.39 185.34 C 247.76 186.85 240.62 186.99 234.69 190.73 C 216.92 200.40 211.00 225.23 220.29 242.69 C 224.58 250.35 232.17 255.71 240.26 258.79 C 244.60 260.57 249.25 261.55 253.54 263.47 C 254.94 263.93 254.73 265.78 254.97 266.95 C 255.28 272.96 254.87 278.98 254.99 285.00 C 254.92 290.87 255.51 296.80 254.49 302.61 C 249.80 302.68 245.28 300.23 242.23 296.76 C 238.45 292.00 239.27 285.45 236.90 280.10 C 231.88 278.15 226.24 279.34 220.96 279.03 C 218.28 279.31 213.53 278.41 213.20 282.22 C 212.71 291.40 215.49 300.78 220.57 308.44 C 226.94 317.66 238.37 321.66 249.09 322.89 C 250.93 323.46 253.96 323.07 254.59 325.39 C 255.63 330.10 254.43 334.97 255.30 339.69 C 256.78 342.27 260.42 341.33 262.81 340.91 C 263.91 335.23 262.42 329.37 263.74 323.73 C 265.74 322.91 267.87 322.53 269.98 322.12 C 280.77 320.35 291.53 314.95 297.93 305.88 C 306.52 291.77 306.97 271.94 296.19 258.83 C 291.29 253.69 284.70 250.55 278.31 247.67 C 273.52 245.45 267.94 244.67 263.78 241.26 C 262.66 236.94 263.28 232.41 263.21 228.00 C 263.49 220.83 262.61 213.61 263.63 206.49 C 268.39 205.21 273.49 207.94 275.96 212.01 C 278.01 215.48 278.29 219.62 279.78 223.31 C 281.87 224.68 284.60 224.22 286.99 224.42 C 291.81 224.26 296.81 224.98 301.48 223.48 C 302.35 219.11 300.81 214.71 299.54 210.57 C 296.33 200.68 287.92 193.20 278.43 189.45 C 274.02 187.68 269.21 187.42 264.66 186.16 C 263.56 182.03 264.18 177.69 263.44 173.51 C 260.85 172.87 258.13 172.86 255.54 173.47 Z" />
        <path fill="#f8c605" opacity="1.00"
            d=" M 248.44 207.38 C 250.36 206.66 252.82 205.88 254.63 207.31 C 255.39 211.83 254.97 216.43 255.01 220.99 C 254.90 226.64 255.36 232.30 254.70 237.92 C 249.20 237.67 244.30 234.11 241.49 229.51 C 239.59 226.02 239.60 221.84 239.92 217.98 C 240.29 213.13 244.18 209.25 248.44 207.38 Z" />
        <path fill="#f8c605" opacity="1.00"
            d=" M 264.29 268.03 C 269.61 268.00 274.23 271.64 277.21 275.76 C 280.66 281.45 280.78 289.00 277.92 294.95 C 275.36 299.73 269.99 303.05 264.50 302.54 C 263.46 297.08 263.99 291.51 263.94 286.00 C 264.05 280.01 263.51 273.99 264.29 268.03 Z" />
    </g>
    <g id="#e9af00ff">
        <path fill="#e9af00" opacity="1.00"
            d=" M 255.54 173.47 C 258.13 172.86 260.85 172.87 263.44 173.51 C 264.18 177.69 263.56 182.03 264.66 186.16 C 269.21 187.42 274.02 187.68 278.43 189.45 C 287.92 193.20 296.33 200.68 299.54 210.57 C 300.81 214.71 302.35 219.11 301.48 223.48 C 296.81 224.98 291.81 224.26 286.99 224.42 C 284.60 224.22 281.87 224.68 279.78 223.31 C 278.29 219.62 278.01 215.48 275.96 212.01 C 273.49 207.94 268.39 205.21 263.63 206.49 C 262.61 213.61 263.49 220.83 263.21 228.00 C 263.28 232.41 262.66 236.94 263.78 241.26 C 267.94 244.67 273.52 245.45 278.31 247.67 C 284.70 250.55 291.29 253.69 296.19 258.83 C 306.97 271.94 306.52 291.77 297.93 305.88 C 291.53 314.95 280.77 320.35 269.98 322.12 C 267.87 322.53 265.74 322.91 263.74 323.73 C 262.42 329.37 263.91 335.23 262.81 340.91 C 260.42 341.33 256.78 342.27 255.30 339.69 C 254.43 334.97 255.63 330.10 254.59 325.39 C 253.96 323.07 250.93 323.46 249.09 322.89 C 238.37 321.66 226.94 317.66 220.57 308.44 C 215.49 300.78 212.71 291.40 213.20 282.22 C 213.53 278.41 218.28 279.31 220.96 279.03 C 226.24 279.34 231.88 278.15 236.90 280.10 C 239.27 285.45 238.45 292.00 242.23 296.76 C 245.28 300.23 249.80 302.68 254.49 302.61 C 255.51 296.80 254.92 290.87 254.99 285.00 C 254.87 278.98 255.28 272.96 254.97 266.95 C 254.73 265.78 254.94 263.93 253.54 263.47 C 249.25 261.55 244.60 260.57 240.26 258.79 C 232.17 255.71 224.58 250.35 220.29 242.69 C 211.00 225.23 216.92 200.40 234.69 190.73 C 240.62 186.99 247.76 186.85 254.39 185.34 C 255.23 181.43 254.84 177.39 255.54 173.47 M 248.44 207.38 C 244.18 209.25 240.29 213.13 239.92 217.98 C 239.60 221.84 239.59 226.02 241.49 229.51 C 244.30 234.11 249.20 237.67 254.70 237.92 C 255.36 232.30 254.90 226.64 255.01 220.99 C 254.97 216.43 255.39 211.83 254.63 207.31 C 252.82 205.88 250.36 206.66 248.44 207.38 M 264.29 268.03 C 263.51 273.99 264.05 280.01 263.94 286.00 C 263.99 291.51 263.46 297.08 264.50 302.54 C 269.99 303.05 275.36 299.73 277.92 294.95 C 280.78 289.00 280.66 281.45 277.21 275.76 C 274.23 271.64 269.61 268.00 264.29 268.03 Z" />
    </g>
</svg>
