<svg class="crsl-img" style="margin-top:3px;" xmlns="http://www.w3.org/2000/svg" width="60"
    height="57.9" viewBox="0 0 60 57.9">
    <g transform="translate(-1457.281 -1119.832)" fill="#C00">
        <path class="a"
            d="M1479.974,1177.7l-18.588-3.522a4.725,4.725,0,0,1-4.1-4.757v-6.115a4.805,4.805,0,0,1,4.826-4.785h0a14.7,14.7,0,0,0,8.457-2.649,14.245,14.245,0,0,1,9.1-3.261h8.759a6.86,6.86,0,0,1,4.99,2.143,6.746,6.746,0,0,1,1.244,1.854l12.494-5.982a6.975,6.975,0,0,1,9.15,2.442,6.727,6.727,0,0,1,.723,5.348,6.811,6.811,0,0,1-3.481,4.194l-13.954,6.7-7.7,3.668a1.587,1.587,0,0,1-.527.147l-3.924,1.947c-.012.007-1.928,1.153-2.464,1.441a9.425,9.425,0,0,1-4.7,1.218A1.609,1.609,0,0,1,1479.974,1177.7Zm-19.552-14.394v6.153a1.64,1.64,0,0,0,1.476,1.649l18.512,3.506a6.308,6.308,0,0,0,3.079-.849c.466-.246,2.335-1.366,2.453-1.431l5.983-2.972a1.559,1.559,0,0,1,.643-.164l5.654-2.7,13.916-6.671a3.681,3.681,0,0,0,1.864-2.26,3.628,3.628,0,0,0-.377-2.869,3.831,3.831,0,0,0-5.056-1.3l-13.324,6.384v.076a6.92,6.92,0,0,1-6.992,6.321H1480a1.556,1.556,0,1,1-.163-3.107,1.344,1.344,0,0,1,.163,0h8.272a3.791,3.791,0,0,0,3.842-3.438,3.643,3.643,0,0,0-.991-2.745,3.7,3.7,0,0,0-2.7-1.161h-8.762a11.093,11.093,0,0,0-7.128,2.571l-.1.077a17.838,17.838,0,0,1-10.322,3.249,1.679,1.679,0,0,0-1.686,1.674Zm25.714-20.3v-2.5a10.309,10.309,0,0,1-3.4-.936,1.324,1.324,0,0,1-.655-1.753c.015-.033.032-.067.049-.1l.014-.025a1.407,1.407,0,0,1,1.846-.553,7.185,7.185,0,0,0,3.236.787c2.166,0,3.321-.7,3.321-1.907,0-.949-.75-1.509-2.695-2.276-.014,0-1.168-.45-1.519-.594h.009c-3.049-1.263-4.42-2.509-4.42-4.866,0-2.256,1.618-3.932,4.212-4.407v-2.6a1.513,1.513,0,0,1,3.024,0v2.555a9.611,9.611,0,0,1,2.718.777,1.321,1.321,0,0,1,.686,1.738,1.336,1.336,0,0,1-.091.174,1.409,1.409,0,0,1-1.78.518,6.949,6.949,0,0,0-2.96-.666c-1.756,0-2.719.637-2.719,1.777,0,.964.8,1.557,2.875,2.38.172.069.234.092.652.255,3.738,1.453,5.17,2.535,5.17,4.878,0,2.539-1.654,4.266-4.549,4.735v2.607a1.513,1.513,0,0,1-3.024,0Z"
            transform="translate(0 0)" />
    </g>
</svg>