<svg xmlns="http://www.w3.org/2000/svg" width="48" height="49" viewBox="0 0 48 49">
    <g fill="none" fill-rule="evenodd">
        <g fill="#C00">
            <path
                d="M28.591 4.134c.479-.276 1.09-.112 1.367.366l2.65 4.59h5.302c.552 0 1 .448 1 1v5.302l4.59 2.651c.478.277.642.888.366 1.366L41.215 24l2.651 4.59c.276.479.112 1.09-.366 1.367l-4.59 2.651v5.301c0 .553-.448 1-1 1h-5.301L29.958 43.5c-.277.478-.888.642-1.367.366l-4.59-2.651-4.593 2.651c-.478.276-1.09.112-1.366-.366l-2.649-4.59h-5.3c-.553 0-1-.448-1-1v-5.302L4.5 29.957c-.478-.276-.642-.888-.366-1.366L6.785 24l-2.651-4.59c-.276-.479-.112-1.09.366-1.367l4.593-2.651V10.09c0-.553.447-1 1-1h5.3l2.65-4.59c.275-.48.887-.643 1.365-.367l4.593 2.651zm.135 2.232L24.5 8.806c-.31.179-.69.179-1 0l-4.226-2.44-2.438 4.225c-.179.31-.51.5-.866.5h-4.878v4.878c0 .357-.191.687-.5.866l-4.227 2.44 2.44 4.225c.179.31.179.69 0 1l-2.44 4.225 4.227 2.44c.309.179.5.509.5.866v4.878h4.878c.357 0 .687.19.866.5l2.438 4.225 4.226-2.44c.31-.179.69-.179 1 0l4.225 2.44 2.44-4.225c.178-.31.508-.5.866-.5h4.878v-4.878c0-.357.19-.687.5-.866l4.224-2.44-2.44-4.225c-.179-.31-.179-.69 0-1l2.44-4.225-4.225-2.44c-.309-.179-.5-.509-.5-.866v-4.878h-4.877c-.358 0-.688-.19-.866-.5l-2.44-4.225zM30 24.581c2.202 0 4 1.798 4 4v2c0 2.203-1.798 4-4 4s-4-1.797-4-4v-2c0-2.202 1.798-4 4-4zm0 2c-1.098 0-2 .903-2 2v2c0 1.098.902 2 2 2 1.098 0 2-.902 2-2v-2c0-1.097-.902-2-2-2zm.193-10.238c.387-.394 1.02-.4 1.415-.013.394.387.4 1.02.013 1.414L17.851 31.78c-.387.394-1.02.4-1.415.013-.394-.387-.4-1.02-.013-1.414zM18 14.372c2.202 0 4 1.797 4 4v2c0 2.202-1.798 4-4 4s-4-1.798-4-4v-2c0-2.203 1.798-4 4-4zm0 2c-1.098 0-2 .902-2 2v2c0 1.097.902 2 2 2 1.098 0 2-.903 2-2v-2c0-1.098-.902-2-2-2z"
                transform="translate(-389 -1024) translate(83 937) translate(306 88)" />
        </g>
    </g>
</svg>