<svg xmlns="http://www.w3.org/2000/svg" xmlns:xlink="http://www.w3.org/1999/xlink" width="40"
    height="36" viewBox="0 0 20 16">
    <path
        d="M2.92175635,3.00115123 C3.19789873,3.00115123 3.42175635,3.22500885 3.42175635,3.50115123 L3.42199321,5.01093272 C3.84758242,5.04778893 4.22722276,5.12663577 4.56085024,5.23737321 C4.85938529,5.33646279 5.06779519,5.44130577 5.1875604,5.52248306 C5.41614304,5.6774172 5.47584694,5.98831898 5.3209128,6.21690162 C5.16597866,6.44548426 4.85507688,6.50518816 4.62649424,6.35025402 C4.58068585,6.31920493 4.45446547,6.25570833 4.24583047,6.18645832 C3.9091366,6.07470309 3.50126335,6.00231173 3.01949834,5.98950352 C2.98671314,5.99798361 2.95460466,6.00115123 2.92175635,6.00115123 C2.88638125,6.00115123 2.85186418,5.99747755 2.81856585,5.99049089 L2.86441484,5.98746299 C1.88268495,5.98746299 1.07441892,6.59073122 1.07441892,7.40756619 C1.07441892,7.76873394 1.43805087,8.13923701 2.12549541,8.49073388 C2.45300254,8.65819136 3.37148734,9.02438263 3.34190679,9.01048937 C3.27685938,8.97995959 4.14558541,9.32692079 4.48569524,9.5047188 C5.42507115,9.99579301 6,10.6415464 6,11.5502678 C6,12.9269953 4.99216049,13.7684507 3.42205948,13.9502192 L3.42175635,15.5011512 C3.42175635,15.7772936 3.19789873,16.0011512 2.92175635,16.0011512 C2.64561398,16.0011512 2.42175635,15.7772936 2.42175635,15.5011512 L2.42226452,13.9687882 C2.27192855,13.9525859 2.11399217,13.9261091 1.94881487,13.8904112 C1.68282884,13.8329267 1.4042041,13.7528345 1.11939966,13.655868 C0.91312077,13.5856369 0.715319042,13.5105797 0.532352624,13.4354133 C0.421514726,13.3898789 0.339104552,13.3538988 0.29173884,13.3321979 C0.0406907677,13.2171784 -0.0695822078,12.920422 0.0454372551,12.669374 C0.160456718,12.4183259 0.457213089,12.3080529 0.70826116,12.4230724 C0.860467686,12.4928069 1.12389777,12.6010294 1.44169862,12.7092301 C1.69250124,12.7946201 1.93515128,12.8643711 2.16005651,12.9129773 C2.386327,12.9618786 2.58655083,12.987463 2.75125731,12.987463 C4.21168679,12.987463 5,12.458231 5,11.5502678 C5,11.1018604 4.66709886,10.7279497 4.02241376,10.39093 C3.73744843,10.2419597 2.89632451,9.90602251 2.91690795,9.91568325 C2.98889471,9.94949373 2.04907283,9.57479556 1.67024436,9.381097 C0.67983392,8.8746908 0.0744189208,8.25783602 0.0744189208,7.40756619 C0.0744189208,6.11051951 1.13168857,5.19007413 2.4210046,5.01697887 L2.42175635,3.50115123 C2.42175635,3.22500885 2.64561398,3.00115123 2.92175635,3.00115123 Z M19.4988774,15 C19.7750197,15 19.9988774,15.2238576 19.9988774,15.5 C19.9988774,15.7761424 19.7750197,16 19.4988774,16 L9.49887736,16 C9.22273498,16 8.99887736,15.7761424 8.99887736,15.5 C8.99887736,15.2238576 9.22273498,15 9.49887736,15 L19.4988774,15 Z M19.4988774,10.0011512 C19.7750197,10.0011512 19.9988774,10.2250089 19.9988774,10.5011512 C19.9988774,10.7772936 19.7750197,11.0011512 19.4988774,11.0011512 L9.49887736,11.0011512 C9.22273498,11.0011512 8.99887736,10.7772936 8.99887736,10.5011512 C8.99887736,10.2250089 9.22273498,10.0011512 9.49887736,10.0011512 L19.4988774,10.0011512 Z M19.4988774,5.00230245 C19.7750197,5.00230245 19.9988774,5.22616008 19.9988774,5.50230245 C19.9988774,5.77844483 19.7750197,6.00230245 19.4988774,6.00230245 L9.49887736,6.00230245 C9.22273498,6.00230245 8.99887736,5.77844483 8.99887736,5.50230245 C8.99887736,5.22616008 9.22273498,5.00230245 9.49887736,5.00230245 L19.4988774,5.00230245 Z M19.4988774,0.00345367715 C19.7750197,0.00345367715 19.9988774,0.227311302 19.9988774,0.503453677 C19.9988774,0.779596052 19.7750197,1.00345368 19.4988774,1.00345368 L9.49887736,1.00345368 C9.22273498,1.00345368 8.99887736,0.779596052 8.99887736,0.503453677 C8.99887736,0.227311302 9.22273498,0.00345367715 9.49887736,0.00345367715 L19.4988774,0.00345367715 Z"
        id="path-1" />
    <g stroke="none" stroke-width="1" fill="none" fill-rule="evenodd">
        <g transform="translate(-727.000000, -780.000000)">
            <g transform="translate(727.000000, 780.000000)">
                <g id="ic_investment">
                    <use id="Mask" fill="#C00" xlink:href="#path-1" />
                </g>
            </g>
        </g>
    </g>
</svg>