<svg xmlns="http://www.w3.org/2000/svg" width="40" height="40" viewBox="0 0 40 40">
    <path fill="#C00" fill-rule="evenodd"
        d="M12.5 13.333c.46 0 .833.373.833.834 0 .46-.372.833-.833.833h-1.75c-.381 3.004-2.746 5.369-5.75 5.75v6.834c3.004.38 5.369 2.745 5.75 5.75h18.5c.381-3.005 2.746-5.37 5.75-5.75V20.75c-3.004-.38-5.369-2.745-5.75-5.749H27.5c-.46 0-.833-.373-.833-.833 0-.46.372-.834.833-.834h8.333c.46 0 .834.373.834.834v20c0 .46-.373.833-.834.833H4.167c-.46 0-.834-.373-.834-.833v-20c0-.46.373-.834.834-.834zM5 29.251v4.082h4.082C8.73 31.246 7.087 29.604 5 29.251zm30 0c-2.087.353-3.729 1.995-4.082 4.082H35zM20.244 5.244c.326-.325.853-.325 1.179 0l5 5c.325.326.325.853 0 1.179-.163.162-.376.244-.59.244-.213 0-.426-.082-.589-.244l-3.577-3.578v10.573c2.82.408 5 2.818 5 5.749 0 3.216-2.618 5.833-5.834 5.833C17.617 30 15 27.383 15 24.167c0-2.931 2.18-5.34 5-5.75V7.846l-3.577 3.578c-.326.325-.853.325-1.179 0-.325-.326-.325-.853 0-1.179zM20.834 20c-2.298 0-4.167 1.868-4.167 4.167 0 2.298 1.869 4.166 4.166 4.166 2.298 0 4.167-1.868 4.167-4.166C25 21.868 23.13 20 20.833 20zM35 15h-4.082c.353 2.087 1.995 3.729 4.082 4.082V15zM9.082 15H5v4.082C7.087 18.73 8.729 17.087 9.082 15z" />
</svg>