<svg width="72" height="72" viewBox="0 0 72 72" version="1.1" xmlns="http://www.w3.org/2000/svg">
    <g id="#1c1c1cff">
        <path fill="#1c1c1c" opacity="1.00"
            d=" M 22.72 5.80 C 30.33 2.50 39.30 1.96 47.08 5.03 C 47.90 8.58 44.13 7.15 42.19 6.73 C 29.64 3.71 15.74 10.22 9.71 21.56 C 2.74 33.70 5.95 50.40 16.89 59.12 C 26.58 67.35 41.59 68.30 52.18 61.23 C 61.91 55.17 67.49 43.11 65.64 31.77 C 64.93 25.21 61.53 19.27 57.03 14.56 C 57.00 16.79 57.08 19.04 56.77 21.27 C 56.12 21.35 54.81 21.52 54.16 21.61 C 53.94 17.73 53.94 13.84 54.12 9.96 C 58.11 9.66 62.13 9.62 66.11 10.02 C 66.49 13.96 61.77 12.45 59.43 12.78 C 67.99 21.34 71.19 34.70 67.35 46.19 C 62.87 60.87 47.12 70.96 31.91 68.71 C 17.32 67.17 4.83 54.68 3.29 40.10 C 1.22 26.00 9.67 11.38 22.72 5.80 Z" />
        <path fill="#1c1c1c" opacity="1.00"
            d=" M 34.42 25.42 C 34.63 23.46 33.98 19.99 37.13 21.13 C 37.42 22.57 37.48 24.05 37.59 25.51 C 39.69 26.38 43.47 27.42 41.23 30.26 C 38.65 29.21 34.77 27.04 32.76 30.11 C 31.40 31.34 33.38 32.92 34.46 33.44 C 37.49 35.16 42.33 36.02 42.71 40.22 C 43.10 43.42 40.36 45.56 37.64 46.46 C 37.29 48.29 38.02 51.87 35.00 50.81 C 34.41 49.47 34.54 47.97 34.40 46.54 C 32.53 45.94 27.14 44.61 30.22 42.10 C 33.32 42.99 38.36 45.13 39.89 40.90 C 38.48 36.68 32.39 37.34 30.15 33.64 C 27.96 30.28 30.95 26.26 34.42 25.42 Z" />
    </g>
</svg>
