<svg width="128" height="128" viewBox="0 0 128 128" xmlns="http://www.w3.org/2000/svg">
    <g id="#fe0504ff">
        <path fill="#fe0504" opacity="1.00"
            d=" M 53.52 8.54 C 59.14 1.07 71.76 1.18 77.24 8.78 C 80.92 13.16 80.25 19.11 80.26 24.42 C 92.05 29.95 100.39 42.06 101.21 55.07 C 101.37 62.30 101.07 69.55 101.32 76.77 C 104.65 81.98 108.85 86.59 112.23 91.76 C 115.24 96.82 111.95 104.19 106.03 105.00 C 99.44 105.54 92.80 105.12 86.19 105.21 C 85.08 111.79 80.94 117.80 74.97 120.86 C 67.41 124.89 57.44 123.61 51.16 117.77 C 47.44 114.59 45.26 109.99 44.38 105.24 C 37.92 105.11 31.45 105.49 25.01 105.06 C 18.76 104.57 15.01 96.64 18.49 91.46 C 21.96 86.54 25.72 81.83 29.27 76.97 C 29.50 68.35 28.75 59.68 29.68 51.11 C 31.44 39.36 39.63 29.15 50.29 24.11 C 50.14 18.80 49.76 12.83 53.52 8.54 M 58.78 11.80 C 55.98 14.44 56.13 18.51 56.21 22.05 C 62.15 20.67 68.36 20.60 74.28 22.13 C 74.33 18.65 74.64 14.65 71.92 11.99 C 68.66 8.10 62.17 8.02 58.78 11.80 M 38.52 43.40 C 32.76 54.41 36.35 67.17 35.03 78.97 C 31.78 84.59 27.16 89.31 23.69 94.79 C 22.79 96.11 24.10 97.43 24.47 98.68 C 27.89 99.59 31.45 99.19 34.95 99.25 C 57.96 99.19 80.98 99.29 103.99 99.21 C 106.15 99.38 108.11 97.03 107.00 94.98 C 103.54 89.26 98.47 84.54 95.47 78.58 C 94.74 70.03 95.85 61.37 94.90 52.83 C 93.16 41.65 84.74 31.94 73.99 28.46 C 60.63 23.71 44.70 30.82 38.52 43.40 M 50.46 105.25 C 52.19 112.51 59.41 118.13 66.97 117.08 C 73.35 116.45 78.51 111.35 80.10 105.28 C 70.22 105.20 60.34 105.25 50.46 105.25 Z" />
    </g>
</svg>
