<svg width="72" height="72" viewBox="0 0 72 72" xmlns="http://www.w3.org/2000/svg">
    <path fill="#C00" opacity="1.00"
        d=" M 34.50 8.31 C 34.34 6.81 36.60 6.98 37.41 7.57 C 37.81 13.63 37.48 19.72 37.55 25.80 C 40.03 23.26 42.54 20.74 45.18 18.36 C 45.59 19.27 47.02 20.13 46.17 21.22 C 43.63 24.33 40.61 27.03 37.76 29.87 C 36.87 30.90 35.18 30.91 34.28 29.90 C 31.14 26.78 27.74 23.84 25.18 20.20 C 25.64 19.78 26.56 18.96 27.03 18.55 C 29.58 20.88 32.04 23.32 34.45 25.80 C 34.47 19.97 34.30 14.14 34.50 8.31 Z" />
    <path fill="#C00" opacity="1.00"
        d=" M 5.96 25.59 C 10.53 24.28 15.34 25.04 20.03 24.85 C 21.69 24.66 25.24 25.26 23.72 27.62 C 22.37 28.07 20.92 27.99 19.52 28.10 C 18.42 33.28 14.46 37.60 9.11 38.43 C 9.10 42.44 9.10 46.44 9.10 50.45 C 14.34 51.57 18.44 55.58 19.51 60.86 C 30.43 61.00 41.36 60.61 52.27 61.07 C 53.56 55.81 57.50 51.54 62.90 50.45 C 62.90 46.45 62.90 42.44 62.89 38.43 C 57.55 37.59 53.55 33.29 52.47 28.09 C 50.93 27.87 48.99 28.47 47.91 27.03 C 47.69 24.80 50.43 24.88 51.97 24.86 C 56.66 25.04 61.47 24.27 66.04 25.60 C 65.94 37.43 66.03 49.26 66.01 61.10 C 66.03 62.35 66.06 64.36 64.19 63.97 C 46.46 64.07 28.73 63.94 11.00 64.03 C 9.46 63.96 7.85 64.19 6.37 63.68 C 5.76 62.19 6.07 60.52 5.97 58.96 C 6.01 47.84 6.04 36.71 5.96 25.59 M 9.09 28.00 C 9.08 30.52 9.13 33.04 9.19 35.56 C 12.68 34.33 15.59 31.76 16.45 28.05 C 13.99 28.00 11.54 27.99 9.09 28.00 M 55.50 28.06 C 56.47 31.72 59.29 34.35 62.81 35.56 C 62.87 33.04 62.92 30.52 62.91 28.00 C 60.44 27.99 57.97 28.00 55.50 28.06 M 9.15 53.51 C 9.10 55.96 9.09 58.42 9.08 60.88 C 11.53 60.87 13.98 60.87 16.43 60.82 C 15.47 57.27 12.67 54.52 9.15 53.51 M 55.50 60.82 C 57.97 60.87 60.44 60.87 62.91 60.88 C 62.91 58.42 62.90 55.96 62.85 53.51 C 59.29 54.50 56.57 57.31 55.50 60.82 Z" />
    <path fill="#C00" opacity="1.00"
        d=" M 32.40 34.58 C 39.87 31.51 48.51 39.27 46.15 47.02 C 44.72 54.57 34.23 57.52 28.87 52.19 C 23.12 47.27 25.26 36.96 32.40 34.58 M 33.37 37.55 C 27.93 39.22 26.75 47.40 31.57 50.49 C 35.66 54.01 42.49 51.09 43.40 45.94 C 44.69 40.42 38.57 35.39 33.37 37.55 Z" />
</svg>
