<svg xmlns="http://www.w3.org/2000/svg" width="40" height="40" viewBox="0 0 40 40">
    <path fill="#C00"
        d="M5.824 24.984c.46 0 .833.373.833.834v3.39c0 2.28 1.869 4.13 4.177 4.13h3.315c.46 0 .834.374.834.834 0 .46-.373.833-.834.833h-3.315c-3.225 0-5.844-2.594-5.844-5.796v-3.391c0-.46.374-.834.834-.834zm28.352 0c.46 0 .834.373.834.834v3.39c0 3.203-2.619 5.797-5.844 5.797h-3.315c-.46 0-.834-.373-.834-.833 0-.46.373-.833.834-.833h3.315c2.308 0 4.177-1.852 4.177-4.13v-3.391c0-.46.373-.834.833-.834zM12.497 11.662c.46 0 .834.373.834.833v15c0 .46-.374.833-.834.833-.46 0-.833-.373-.833-.833v-15c0-.46.373-.833.833-.833zm11.667 0c.46 0 .833.373.833.833v15c0 .46-.373.833-.833.833-.46 0-.833-.373-.833-.833v-15c0-.46.373-.833.833-.833zm-8.333 0c.46 0 .833.373.833.833v15c0 .46-.373.833-.833.833-.46 0-.834-.373-.834-.833v-15c0-.46.373-.833.834-.833zm5 0c.46 0 .833.373.833.833v15c0 .46-.373.833-.833.833-.46 0-.834-.373-.834-.833v-15c0-.46.373-.833.834-.833zm6.661 0c.46 0 .834.373.834.833v15c0 .46-.374.833-.834.833-.46 0-.833-.373-.833-.833v-15c0-.46.373-.833.833-.833zm1.674-6.667c3.225 0 5.844 2.594 5.844 5.796v3.391c0 .46-.374.834-.834.834-.46 0-.833-.373-.833-.834v-3.39c0-2.28-1.869-4.13-4.177-4.13h-3.315c-.46 0-.834-.374-.834-.834 0-.46.373-.833.834-.833zm-15.017 0c.46 0 .834.373.834.833 0 .46-.373.833-.834.833h-3.315c-2.308 0-4.177 1.852-4.177 4.13v3.391c0 .46-.373.834-.833.834-.46 0-.834-.373-.834-.834v-3.39c0-3.203 2.619-5.797 5.844-5.797h3.315z" />
</svg>