<svg width="24px" height="34px" viewBox="0 0 24 34" xmlns="http://www.w3.org/2000/svg">
    <g stroke="none" stroke-width="1" fill="none" fill-rule="evenodd">
        <g transform="translate(-188.000000, -115.000000)" fill="#C00">
            <g transform="translate(180.000000, 112.000000)">
                <path
                    d="M30.8333333,3.33333333 C31.2935706,3.33333333 31.6666667,3.70642938 31.6666667,4.16666667 L31.6666667,4.16666667 L31.6666667,35.8333333 C31.6666667,36.2935706 31.2935706,36.6666667 30.8333333,36.6666667 L30.8333333,36.6666667 L9.16666667,36.6666667 C8.70642938,36.6666667 8.33333333,36.2935706 8.33333333,35.8333333 L8.33333333,35.8333333 L8.33333333,4.16666667 C8.33333333,3.70642938 8.70642938,3.33333333 9.16666667,3.33333333 L9.16666667,3.33333333 Z M30,5 L10,5 L10,35 L30,35 L30,5 Z M19.9706667,19.167 C20.3955011,19.167 20.746085,19.4849043 20.7975072,19.8958018 L20.804,20.0003333 L20.805011,20.6189314 C21.1147057,20.6858763 21.4215283,20.7811495 21.723122,20.8989021 C22.0921139,21.0429691 22.3779342,21.1891377 22.5537732,21.2955455 C22.9475271,21.5338232 23.0735655,22.046186 22.8352878,22.4399399 C22.5970101,22.8336938 22.0846473,22.9597321 21.6908934,22.7214545 C21.5913158,22.6611957 21.388282,22.5573642 21.1169613,22.4514313 C20.67244,22.2778749 20.2227064,22.1751667 19.809,22.1751667 C19.0164311,22.1751667 18.514,22.5205546 18.514,22.9068333 C18.514,23.3478948 18.9027291,23.6559274 20.154163,24.1664686 L20.3708046,24.2534915 L20.5188841,24.3120719 C22.5164791,25.1026272 23.2806667,25.643725 23.2806667,26.9935 C23.2806667,28.3745236 22.300735,29.2211142 20.8046627,29.4482305 L20.804,30.0155 C20.804,30.4757373 20.430904,30.8488333 19.9706667,30.8488333 C19.5458322,30.8488333 19.1952484,30.530929 19.1438262,30.1200316 L19.1373333,30.0155 L19.137662,29.4564149 C18.6211586,29.3850135 18.1621165,29.2449994 17.7611227,29.0515789 C17.3754946,28.86557 17.1086595,28.6655545 16.9525343,28.5036868 C16.6330264,28.1724269 16.6425533,27.6448755 16.9738132,27.3253676 C17.3050731,27.0058598 17.8326245,27.0153867 18.1521324,27.3466465 C18.1772572,27.3726955 18.2864637,27.454555 18.4852106,27.5504211 C18.8603449,27.7313683 19.3414423,27.8435 19.944,27.8435 L19.9249991,27.843 L19.9706667,27.8405 L20.006894,27.8412733 L20.006894,27.8412733 C21.1243746,27.8313064 21.614,27.5046754 21.614,26.9935 C21.614,26.6777253 21.2677269,26.4149969 20.1170761,25.9466318 L19.9055769,25.8617919 L19.7571954,25.8030919 C17.6832197,24.981841 16.8473333,24.3693935 16.8473333,22.9068333 C16.8473333,21.6484628 17.8406086,20.7856085 19.1373162,20.5644595 L19.1373333,20.0003333 C19.1373333,19.540096 19.5104294,19.167 19.9706667,19.167 Z M25.8333333,15 C26.2935706,15 26.6666667,15.373096 26.6666667,15.8333333 C26.6666667,16.2935706 26.2935706,16.6666667 25.8333333,16.6666667 L25.8333333,16.6666667 L14.1666667,16.6666667 C13.7064294,16.6666667 13.3333333,16.2935706 13.3333333,15.8333333 C13.3333333,15.373096 13.7064294,15 14.1666667,15 L14.1666667,15 Z M25.8333333,10 C26.2935706,10 26.6666667,10.373096 26.6666667,10.8333333 C26.6666667,11.2935706 26.2935706,11.6666667 25.8333333,11.6666667 L25.8333333,11.6666667 L14.1666667,11.6666667 C13.7064294,11.6666667 13.3333333,11.2935706 13.3333333,10.8333333 C13.3333333,10.373096 13.7064294,10 14.1666667,10 L14.1666667,10 Z"
                    id="Icon" />
            </g>
        </g>
    </g>
</svg>